<svg id="Capa_1" enable-background="new 0 0 512 512" height="512" viewBox="0 0 512 512" width="512" xmlns="http://www.w3.org/2000/svg" xmlns:xlink="http://www.w3.org/1999/xlink"><linearGradient id="lg1"><stop offset="0" stop-color="#00b59c"/><stop offset="1" stop-color="#9cffac"/></linearGradient><linearGradient id="SVGID_1_" gradientUnits="userSpaceOnUse" x1="256" x2="256" xlink:href="#lg1" y1="330" y2="0"/><linearGradient id="SVGID_2_" gradientUnits="userSpaceOnUse" x1="255.992" x2="255.992" y1="497" y2="182.402"><stop offset="0" stop-color="#c3ffe8"/><stop offset=".9973" stop-color="#f0fff4"/></linearGradient><linearGradient id="SVGID_3_" gradientUnits="userSpaceOnUse" x1="256" x2="256" xlink:href="#lg1" y1="512" y2="482"/><g><g><path d="m376 330h-91.201c-4.248 0-8.291-1.802-11.133-4.951s-4.219-7.354-3.779-11.587c1.523-14.839 4.746-29.341 9.697-43.477-15.264 6.167-30.762 6.079-46.992-1.084 5.098 14.458 8.408 29.37 9.844 44.692.381 4.204-.996 8.379-3.838 11.499-2.842 3.135-6.885 4.907-11.104 4.907h-91.494c-57.891 0-105-47.109-105-105 0-53.057 39.551-97.046 90.732-104.033 7.032-67.865 64.571-120.966 134.268-120.966s127.236 53.101 134.268 120.967c51.181 6.987 90.732 50.976 90.732 104.033 0 57.891-47.109 105-105 105z" fill="url(#SVGID_1_)"/></g><path d="m151.249 497h209.485c.005-3.094-.676-6.152-2.547-8.76-16.436-22.852-66.445-94.373-58.477-171.702 3.691-35.815 19.395-69.624 46.699-100.488 5.391-6.094 4.951-15.352-.967-20.889-5.918-5.552-15.176-5.405-20.918.381-32.842 33.164-51.27 48.955-67.031 48.955-17.461 0-41.045-20.273-78.486-57.7-5.859-5.859-15.352-5.859-21.211 0s-5.859 15.352 0 21.211c33.105 33.12 51.035 68.569 54.756 108.369 4.775 51.401-14.473 109.007-58.828 171.995-1.816 2.576-2.486 5.583-2.475 8.628z" fill="url(#SVGID_2_)"/><g><path d="m406 512h-300c-8.291 0-15-6.709-15-15s6.709-15 15-15h300c8.291 0 15 6.709 15 15s-6.709 15-15 15z" fill="url(#SVGID_3_)"/></g></g></svg>