<svg id="Capa_1" enable-background="new 0 0 512 512" height="512" viewBox="0 0 512 512" width="512" xmlns="http://www.w3.org/2000/svg" xmlns:xlink="http://www.w3.org/1999/xlink"><linearGradient id="SVGID_1_" gradientUnits="userSpaceOnUse" x1="275.575" x2="275.575" y1="512" y2="31.973"><stop offset="0" stop-color="#c3ffe8"/><stop offset=".9973" stop-color="#f0fff4"/></linearGradient><linearGradient id="SVGID_2_" gradientUnits="userSpaceOnUse" x1="256" x2="256" y1="512" y2="0"><stop offset="0" stop-color="#00b59c"/><stop offset="1" stop-color="#9cffac"/></linearGradient><g><g><g><path d="m146.716 101.47c24.053-21.284 53.438-35.01 84.961-39.683 8.203-1.216 13.857-8.848 12.627-17.036-1.201-8.218-8.906-13.726-17.021-12.642-37.295 5.537-72.041 21.753-100.43 46.89-6.211 5.493-6.797 14.971-1.289 21.182 5.512 6.222 14.989 6.752 21.152 1.289zm300.41 84.741c-1.641-8.13-9.492-13.359-17.695-11.733-8.115 1.655-13.359 9.565-11.719 17.681 2.168 10.737 3.281 21.782 3.281 32.842 0 20.874-3.867 41.25-11.484 60.542-3.047 7.705.732 16.421 8.438 19.453 7.726 3.053 16.439-.751 19.453-8.438 9.023-22.822 13.594-46.89 13.594-71.558-.001-13.052-1.29-26.104-3.868-38.789zm-243.545 195.249c-30.176-10.122-56.689-28.74-76.67-53.833-5.215-6.475-14.619-7.5-21.094-2.388-6.475 5.156-7.559 14.59-2.402 21.079 23.613 29.634 54.932 51.621 90.615 63.589 7.868 2.623 16.383-1.607 18.984-9.448 2.637-7.866-1.582-16.362-9.433-18.999zm15.263-58.242c-16.553-6.284-31.406-16.802-42.979-30.425-5.332-6.284-14.795-7.09-21.123-1.714-6.328 5.361-7.09 14.824-1.729 21.138 14.824 17.461 33.896 30.967 55.166 39.038 7.596 2.912 16.373-.84 19.365-8.687 2.931-7.749-.965-16.406-8.7-19.35zm13.096-231.079c-22.412 4.043-43.623 13.872-61.377 28.389-6.416 5.259-7.354 14.707-2.109 21.108 5.239 6.432 14.689 7.349 21.094 2.124 13.828-11.323 30.322-18.955 47.725-22.09 8.145-1.479 13.564-9.272 12.1-17.432-1.495-8.174-9.376-13.593-17.433-12.099zm140.069 98.774c-8.174 1.348-13.711 9.053-12.363 17.227.879 5.493 1.348 11.118 1.348 16.86 0 12.144-2.08 24.082-6.152 35.449-2.783 7.793 1.26 16.392 9.053 19.189 7.692 2.766 16.363-1.175 19.189-9.053 5.244-14.634 7.91-29.971 7.91-45.586 0-7.383-.586-14.648-1.758-21.694-1.349-8.188-9.171-13.622-17.227-12.392zm-30.586 66.094-51.943-30c-7.148-4.116-16.348-1.699-20.479 5.493-4.16 7.178-1.699 16.348 5.479 20.493l51.943 30c7.219 4.145 16.395 1.653 20.479-5.493 4.159-7.178 1.698-16.348-5.479-20.493zm-98.438-24.507c-4.131-7.222-13.301-9.653-20.479-5.493l-51.943 30c-7.178 4.146-9.639 13.315-5.479 20.493 4.088 7.153 13.269 9.632 20.479 5.493l51.943-30c7.178-4.145 9.639-13.315 5.479-20.493zm13.008 7.5c-8.291 0-15 6.709-15 15v242c0 8.291 6.709 15 15 15s15-6.709 15-15v-242c0-8.291-6.709-15-15-15zm-15-105v60c0 8.291 6.709 15 15 15s15-6.709 15-15v-60c0-8.291-6.709-15-15-15s-15 6.709-15 15z" fill="url(#SVGID_1_)"/></g></g><g><g><path d="m345.993 482h-180c-8.291 0-15 6.709-15 15s6.709 15 15 15h180c8.291 0 15-6.709 15-15s-6.709-15-15-15zm-90-212c24.814 0 45-20.186 45-45s-20.186-45-45-45-45 20.186-45 45 20.185 45 45 45zm152.402-8.979c-34.072-19.673-77.314-5.859-79.16-5.273-7.266 2.388-11.572 9.858-9.99 17.344.381 1.875 10.049 46.201 44.15 65.889 27.679 15.971 71.674 25.799 87.48-1.494 12.803-22.238-5.478-55.109-42.48-76.466zm-215.654 12.07c1.582-7.485-2.725-14.956-9.99-17.344-1.816-.571-45.029-14.385-79.16 5.273-37.002 21.357-55.283 54.229-42.451 76.479 15.661 27.162 59.503 17.582 87.451 1.479 34.101-19.686 43.769-64.012 44.15-65.887zm53.232-126.914c2.871 2.549 6.445 3.823 10.02 3.823s7.148-1.274 10.02-3.823c1.406-1.289 34.98-31.787 34.98-71.177 0-42.759-19.336-75-45-75s-45 32.241-45 75c0 39.39 33.574 69.888 34.98 71.177z" fill="url(#SVGID_2_)"/></g></g></g></svg>