<svg xmlns="http://www.w3.org/2000/svg" width="33.758" height="38.656" viewBox="0 0 33.758 38.656">
  <path id="iconfinder__leaf_2006680" d="M33.763,30.712A15.2,15.2,0,0,1,19.4,39.756h0a17.623,17.623,0,0,1-8.689-2.305A17.7,17.7,0,0,1,2.732,26.1Q1.4,19.453,5.924,12.8c-.709,5.852-.355,9.93,1.419,12.058A5.059,5.059,0,0,0,8.761,26.1a16.363,16.363,0,0,0,1.951,6.029,1.344,1.344,0,0,0,.709.355.651.651,0,0,0,.532-.177.827.827,0,0,0,.177-1.241,13.6,13.6,0,0,1-1.773-6.561V23.265a3.018,3.018,0,0,1,.177-1.241v-.355c.709-3.546,2.305-10.107,7.625-15.427A19.059,19.059,0,0,1,30.216,1.1c.887,0,1.064.177,1.064.177C32.876,2.341,39.791,17.413,33.763,30.712Z" transform="translate(-2.43 -1.1)" fill="#fff"/>
</svg>
